<svg xmlns="http://www.w3.org/2000/svg"  width="900" height="321.23" viewBox="0 0 900 321.23"><defs><style>.cls-1{fill:#fff;}</style></defs><title>Asset 2</title><g id="Layer_2" data-name="Layer 2"><g id="Layer_1-2" data-name="Layer 1"><path class="cls-1" d="M900,317.11c-15.65-.11-31.3-.25-47-.31-13.14-.05-26.28,0-39.24,0-1.57-2.14-.94-4.21-.94-6.12q.09-68,.27-136c0-6.17.1-12.33-1.93-18.29-3-8.67-9.24-13.3-18.29-13.33-3.67,0-7.34-.15-11,.07-5.9.35-8.42,2.75-9.06,8.56a92.07,92.07,0,0,0-.54,10q-.06,40.49,0,81c0,13.39,2.65,18.47,13.52,25.87v48H687.32V266.62c6.81-4.4,8-11.67,7.92-19.72-.16-28-.46-56,.12-84,.26-12.56-3.84-22.37-13.36-30.31V88.3h88.18c1,1.84.47,3.7.57,5.49.26,4.72,2.41,6.64,7.07,6,4.18-.56,7.92-2.37,11.67-4.22,19.64-9.68,40.24-13,61.6-7.6,24.72,6.26,38.34,26.43,39.74,50.46,1,16.44.21,33,.31,49.48.12,21.48.34,43,.48,64.45,0,6.73,1.73,12.54,8.38,15.73Z"/><path class="cls-1" d="M0,93.11C7.7,91,12.65,83.89,12.72,74.48c.08-10.83,0-21.65,0-32.48,0-1.65,0-3.29,0-5.42L90.56,14.34c1.75,1.47,1,3.43,1,5.14.06,19.65,0,39.31,0,59,0,9.69,3.88,13.71,13.5,13.89,6.62.12,13.25,0,20.22,0v43.51c-5.11.93-10.24.34-15.32.4-12.92.14-17.76,4.94-17.76,17.94,0,24.32.6,48.66-.18,73-.7,21.82,6.87,37.61,28.25,45.34v42.38c-8.14,4.18-17,5.33-26,5.69-15.49.63-31,.77-46.08-3.6-22-6.38-34.34-22.44-35.32-45.42-.11-2.66-.2-5.33-.21-8q-.27-52.45-.49-104.9a32.56,32.56,0,0,0-4-16.28c-1.87-3.31-4-6.49-8.21-7.26Z"/><path class="cls-1" d="M272.2,133.66V90.43h91.45c1.26,1.65.63,3.72.63,5.63q.06,75,0,150a57.61,57.61,0,0,0,3.66,19.51c1.65,4.65,5.73,6.72,9.79,9.16v42H289.28c-2-11.09-5.47-12.69-15.86-7.49-22.52,11.27-46,15.37-70.7,8.87s-41.38-26.23-42.49-51.89c-.89-20.79-.38-41.65-.44-62.48,0-15.67,0-31.33,0-47,0-13.12-2.28-17-13.79-23.13V90.42h93.41c1.27,1.64.63,3.72.63,5.63q-.09,69.24-.27,138.48c0,1.5,0,3,0,4.5.35,17.66,7.54,24.72,25.23,24.76,3.17,0,6.34.09,9.5,0,6.73-.25,10.06-3.15,11.19-9.78a36,36,0,0,0,.34-6q0-46,0-92C286.06,145.8,282.42,137.84,272.2,133.66Z"/><path class="cls-1" d="M521.56,90.86v45.37c-3.81,0-7.42-.13-11,0-9.89.43-14.67,5.47-14.63,15.15.15,31.48.38,63,.36,94.45,0,10.3,2.06,19.26,12.12,24.06v46.54H405.68v-47c8.35-3.61,9.6-10.87,9.54-19.29q-.34-47,0-94c.06-9.11-2.21-16.76-10-22.26V91.72c7.9-3.38,10-10.13,9.92-18.17-.1-9.65-.22-19.29,1.64-28.86,5.11-26.24,23.31-38.59,46.78-42.54C478.1-.3,492.77-.17,507.41.22a58,58,0,0,1,21.17,4.62c0,12.57,0,25,0,37.51a4.86,4.86,0,0,1-.87,3.57,34.53,34.53,0,0,0-18.57,4,22.84,22.84,0,0,0-12.77,17.95c0,.33-.09.66-.13,1-2.07,17.39,2,22,19.53,22Z"/><path class="cls-1" d="M657.82,268.17v48.29H560V267.67c7-4.56,8-12,8-19.95,0-27.16-.43-54.33.16-81.47C568.46,153,565,142,554.65,133.78V89.42h91.67c1.33,1.74.68,3.81.68,5.72,0,49.15.18,98.31-.09,147.46C646.85,253,649.67,261.56,657.82,268.17Z"/></g></g></svg>